# xmcd
#
# Track frame offsets: 
#        150
#        17296
#        30340
#        45008
#        62648
#        83015
#        96729
#        108352
#        121468
#        135960
#
# Disc length: 2080 seconds
#
# Revision: 11
# Processed by: cddbd v1.5.2PL0 Copyright (c) Steve Scherf et al.
# Submitted via: ExactAudioCopy v1.0b1
#
DISCID=6b081e0a
DTITLE=The Kentucky Headhunters - Pickin' on Nashville
DYEAR=1989
DGENRE=Country
TTITLE0=Walk softly on this heart of mine
TTITLE1=Dumas walker
TTITLE2=Rag top
TTITLE3=Rock 'n' roll angel
TTITLE4=Smooth
TTITLE5=High steppin' daddy
TTITLE6=Skip a rope
TTITLE7=Some folks like to steal
TTITLE8=Oh lonesome me
TTITLE9=My daddy was a milkman
EXTD=
EXTT0=
EXTT1=
EXTT2=
EXTT3=
EXTT4=
EXTT5=
EXTT6=
EXTT7=
EXTT8=
EXTT9=
PLAYORDER=
